<svg width="80" height="85" viewBox="0 0 80 85" fill="none" xmlns="http://www.w3.org/2000/svg">
<path d="M75.1085 -34.9951L75.484 -34.7202L75.9361 -34.8305L88.7088 -37.9453L95.538 -26.7111L95.7797 -26.3134L96.2396 -26.2423L109.232 -24.2321L111.242 -11.2396L111.313 -10.7797L111.711 -10.538L122.945 -3.70882L119.83 9.06392L119.72 9.51602L119.995 9.89152L127.761 20.5L119.995 31.1085L119.72 31.484L119.83 31.9361L122.945 44.7088L111.711 51.538L111.313 51.7797L111.242 52.2396L109.232 65.2321L96.2396 67.2423L95.7797 67.3134L95.538 67.7111L88.7088 78.9453L75.9361 75.8305L75.484 75.7202L75.1085 75.9951L64.5 83.7607L53.8915 75.9951L53.516 75.7202L53.0639 75.8305L40.2912 78.9453L33.462 67.7111L33.2203 67.3134L32.7604 67.2423L19.7679 65.2321L17.7577 52.2396L17.6866 51.7797L17.2889 51.538L6.05473 44.7088L9.16955 31.9361L9.2798 31.484L9.00493 31.1085L1.2393 20.5L9.00493 9.89152L9.2798 9.51602L9.16955 9.06392L6.05473 -3.70882L17.2889 -10.538L17.6866 -10.7797L17.7577 -11.2396L19.7679 -24.2321L32.7604 -26.2423L33.2203 -26.3134L33.462 -26.7111L40.2912 -37.9453L53.0639 -34.8305L53.516 -34.7202L53.8915 -34.9951L64.5 -42.7607L75.1085 -34.9951Z" fill="white" stroke="#FF0000" stroke-width="2"/>
</svg>
