<svg width="578" height="578" viewBox="0 0 578 578" fill="none" xmlns="http://www.w3.org/2000/svg">
<path d="M338.589 37.5391L338.964 37.814L339.416 37.7038L399.121 23.1438L431.044 75.6572L431.285 76.0548L431.745 76.126L492.478 85.5224L501.874 146.255L501.945 146.715L502.343 146.956L554.856 178.879L540.296 238.584L540.186 239.036L540.461 239.411L576.761 289L540.461 338.589L540.186 338.964L540.296 339.416L554.856 399.121L502.343 431.044L501.945 431.285L501.874 431.745L492.478 492.478L431.745 501.874L431.285 501.945L431.044 502.343L399.121 554.856L339.416 540.296L338.964 540.186L338.589 540.461L289 576.761L239.411 540.461L239.036 540.186L238.584 540.296L178.879 554.856L146.956 502.343L146.715 501.945L146.255 501.874L85.5224 492.478L76.126 431.745L76.0548 431.285L75.6572 431.044L23.1438 399.121L37.7038 339.416L37.814 338.964L37.5391 338.589L1.23929 289L37.5391 239.411L37.814 239.036L37.7038 238.584L23.1438 178.879L75.6572 146.956L76.0548 146.715L76.126 146.255L85.5225 85.5225L146.255 76.126L146.715 76.0548L146.956 75.6572L178.879 23.1438L238.584 37.7038L239.036 37.814L239.411 37.5391L289 1.23929L338.589 37.5391Z" fill="white" stroke="#FF0000" stroke-width="2"/>
</svg>
