<svg width="355" height="530" viewBox="0 0 355 530" fill="none" xmlns="http://www.w3.org/2000/svg">
<path d="M115.589 37.5391L115.964 37.814L116.416 37.7038L176.121 23.1438L208.044 75.6572L208.285 76.0548L208.745 76.126L269.478 85.5224L278.874 146.255L278.945 146.715L279.343 146.956L331.856 178.879L317.296 238.584L317.186 239.036L317.461 239.411L353.761 289L317.461 338.589L317.186 338.964L317.296 339.416L331.856 399.121L279.343 431.044L278.945 431.285L278.874 431.745L269.478 492.478L208.745 501.874L208.285 501.945L208.044 502.343L176.121 554.856L116.416 540.296L115.964 540.186L115.589 540.461L66 576.761L16.4115 540.461L16.036 540.186L15.5839 540.296L-44.1213 554.856L-76.0437 502.343L-76.2854 501.945L-76.7453 501.874L-137.478 492.478L-146.874 431.745L-146.945 431.285L-147.343 431.044L-199.856 399.121L-185.296 339.416L-185.186 338.964L-185.461 338.589L-221.761 289L-185.461 239.411L-185.186 239.036L-185.296 238.584L-199.856 178.879L-147.343 146.956L-146.945 146.715L-146.874 146.255L-137.478 85.5225L-76.7453 76.126L-76.2854 76.0548L-76.0437 75.6572L-44.1213 23.1438L15.5839 37.7038L16.036 37.814L16.4115 37.5391L66 1.23929L115.589 37.5391Z" fill="white" stroke="#FF0000" stroke-width="2"/>
</svg>
