<svg width="402" height="510" viewBox="0 0 402 510" fill="none" xmlns="http://www.w3.org/2000/svg">
<path d="M113 0L163.179 36.7322L223.596 21.9988L255.898 75.1377L317.354 84.6461L326.862 146.102L380.001 178.404L365.268 238.821L402 289L365.268 339.179L380.001 399.596L326.862 431.898L317.354 493.354L255.898 502.862L223.596 556.001L163.179 541.268L113 578L62.8208 541.268L2.40448 556.001L-29.8982 502.862L-91.3539 493.354L-100.862 431.898L-154.001 399.596L-139.268 339.179L-176 289L-139.268 238.821L-154.001 178.404L-100.862 146.102L-91.3539 84.6461L-29.8982 75.1377L2.40448 21.9988L62.8208 36.7322L113 0Z" fill="#FF0000"/>
</svg>
